<svg xmlns="http://www.w3.org/2000/svg" width="100" height="100" viewBox="0 0 100 100">
  <defs>
    <style>
      .cls-1 {
        fill-rule: evenodd;
        fill: #fff;
      }
    </style>
  </defs>
  <path id="Forma_1" data-name="Forma 1" class="cls-1" d="M91.405,19.168L71.263,20.819C68.8,12.417,62.307,6.014,54.384,4.4A21.486,21.486,0,0,0,44.17.18V0H41.579V0.145A25.9,25.9,0,0,0,18.444,25.152L1.923,26.509l10.224,63.92L71.2,100l14.07-7.011L99.076,28.554ZM68.418,21.051l-4.09.336a27.176,27.176,0,0,0-5.118-12.2A21.1,21.1,0,0,1,68.418,21.051ZM53.267,7.017a23.574,23.574,0,0,1,8.273,14.6L31.877,24.05A21.656,21.656,0,0,1,51.693,6.833C52.224,6.867,52.748,6.932,53.267,7.017ZM42.819,2.838A18.152,18.152,0,0,1,48.9,4.355a24.464,24.464,0,0,0-19.9,19.932l-7.765.636A23.086,23.086,0,0,1,42.819,2.838ZM72.077,96.311l-1.127-.288L90,21.232l1.127,0.286Z"/>
</svg>
