<svg height="512" viewBox="0 0 38 58" width="512" xmlns="http://www.w3.org/2000/svg"><g id="Page-1" fill="#fff" fill-rule="evenodd"><g id="008---Gaming-Chair" fill="#fff" fill-rule="nonzero"><path id="Shape" d="m4.005 36.122c.17641361 2.7734281 1.86859885 5.2232509 4.4 6.37-.29602703-1.8152201-.43155098-3.6529918-.405-5.492v-.409c.04245388-1.0603642-.23639147-2.1088227-.8-3.008-.30513137-.3480514-.73779593-.5582543-1.2-.583-.19075108.009534-.37876932.0493655-.557.118l-1.223-6.118h.78c.55228475 0 1-.4477153 1-1s-.44771525-1-1-1h-4c-.55228475 0-1 .4477153-1 1s.44771525 1 1 1h1.18z"/><path id="Shape" d="m37 25h-4c-.5522847 0-1 .4477153-1 1s.4477153 1 1 1h.78l-1.224 6.121c-.1771625-.0714681-.3651599-.1123812-.556-.121-.4623261.0251144-.8949726.235669-1.2.584-.5633555.8989178-.8421881 1.9469798-.8 3.007v.409c.0255595 1.8390965-.1109684 3.6768688-.408 5.492 2.5314012-1.1467491 4.2235864-3.5965719 4.4-6.37l1.828-9.122h1.18c.5522847 0 1-.4477153 1-1s-.4477153-1-1-1z"/><rect id="Rectangle-path" height="8" rx="2" width="14" x="12" y="4"/><path id="Shape" d="m9 26c0 1.363-.051 2.512-.1 3.525-.06357744.9797338-.07292504 1.9622339-.028 2.943.065.085.126.173.184.264.53881285-.4699636 1.2290311-.7298606 1.944-.732h1.014c-.0481983-6.0940322.8146662-12.1610479 2.56-18h-.574c-2.209139 0-4-1.790861-4-4v-1.54c-.71389564.5620416-1.47052127 1.06757318-2.263 1.512-1.764 1.035-2.737 1.606-2.737 4.028.05140576 1.7644468.65041328 3.4692068 1.714 4.878 1.48635947 2.0773692 2.28568149 4.5676454 2.286 7.122z"/><path id="Shape" d="m19 0c-2.32 0-3.312.67-4.25 2h8.5c-.938-1.33-1.93-2-4.25-2z"/><path id="Shape" d="m27.623 42.181c.2267066-1.4561017.3496828-2.9264694.368-4.4-1.6613593-.098354-3.3270698.0962779-4.921.575-1.3294024.3611407-2.6940445.5770693-4.07.644-1.3758454-.0659506-2.7404856-.280873-4.07-.641-1.593786-.4794186-3.2596205-.674065-4.921-.575.0176924 1.4737203.1420171 2.9442279.372 4.4.0878569.4746719.5022665.8188212.985.818h15.272c.4845582.0030065.9006731-.3438264.985-.821z"/><path id="Shape" d="m23.426 14c1.7453338 5.8389521 2.6081983 11.9059678 2.56 18h1.014c.7139352.0028601 1.4029668.2627113 1.941.732.058-.091.119-.18.184-.264.044925-.9807661.0355774-1.9632662-.028-2.943-.046-1.013-.097-2.162-.097-3.525.0003185-2.5543546.7996405-5.0446308 2.286-7.122 1.0635867-1.4087932 1.6625942-3.1135532 1.714-4.878 0-2.422-.973-2.993-2.737-4.028-.7924787-.44442682-1.5491044-.9499584-2.263-1.512v1.54c0 2.209139-1.790861 4-4 4z"/><path id="Shape" d="m28 35c0-.5522847-.4477153-1-1-1h-16c-.5522847 0-1 .4477153-1 1v.778c1.8152627-.0876386 3.6325091.1259165 5.378.632 1.1832579.3233442 2.3972944.5211027 3.622.59 1.2247056-.0688973 2.4387421-.2666558 3.622-.59 1.7453808-.5066276 3.5627183-.7201935 5.378-.632z"/><path id="Shape" d="m16.692 14c-.659 1.86-2.554 8.07-2.678 18h9.972c-.124-9.93-2.019-16.14-2.678-18z"/><path id="Shape" d="m30 50h-22c-1.1045695 0-2 .8954305-2 2v1c0 .5522847.44771525 1 1 1h24c.5522847 0 1-.4477153 1-1v-1c0-1.1045695-.8954305-2-2-2z"/><circle id="Oval" cx="8" cy="56" r="2"/><circle id="Oval" cx="19" cy="56" r="2"/><circle id="Oval" cx="30" cy="56" r="2"/><rect id="Rectangle-path" height="5" rx="1" width="6" x="16" y="44"/></g></g></svg>