<?xml version="1.0" encoding="iso-8859-1"?>
<!-- Generator: Adobe Illustrator 19.0.0, SVG Export Plug-In . SVG Version: 6.00 Build 0)  -->
<svg version="1.1" id="Layer_1" xmlns="http://www.w3.org/2000/svg" xmlns:xlink="http://www.w3.org/1999/xlink" x="0px" y="0px"
	fill="#fff" viewBox="0 0 512.001 512.001" style="enable-background:new 0 0 512.001 512.001;" xml:space="preserve">
<g>
	<g>
		<path d="M497.831,125.988h-7.557H21.727v0.001H14.17C6.344,125.99,0,132.334,0,140.16v108.635c0,7.826,6.344,14.17,14.17,14.17
			h43.053c6.922-15.938,18.406-29.466,33.379-39.024c19.851-12.671,43.452-16.853,66.448-11.778l32.157,7.1h133.587l32.156-7.099
			c23.002-5.075,46.6-0.893,66.448,11.777c14.974,9.558,26.458,23.085,33.38,39.024h43.053c7.826,0,14.17-6.344,14.17-14.17V140.159
			C512.001,132.332,505.657,125.988,497.831,125.988z M87.852,198.728H59.513c-5.217,0-9.446-4.229-9.446-9.446
			s4.23-9.446,9.446-9.446h28.339c5.217,0,9.446,4.229,9.446,9.446S93.069,198.728,87.852,198.728z"/>
	</g>
</g>
<g>
	<g>
		<path d="M497.83,36.248H14.17C6.344,36.248,0,42.592,0,50.418V97.65c0,7.826,6.344,14.17,14.17,14.17h8.349h466.963h8.349
			c7.825,0,14.169-6.344,14.169-14.17V50.418C512,42.592,505.656,36.248,497.83,36.248z"/>
	</g>
</g>
<g>
	<g>
		<path d="M474.314,431.47l-32.706-148.144c-3.99-18.07-14.777-33.505-30.375-43.462c-1.666-1.064-3.372-2.035-5.102-2.945
			c0.042-0.445,0.068-0.895,0.068-1.351c0-7.826-6.344-14.17-14.17-14.17H363.69c-6.822,0-12.514,4.822-13.863,11.243l-24.972,5.513
			H187.146l-24.972-5.513c-1.349-6.421-7.042-11.243-13.863-11.243H119.97c-7.826,0-14.17,6.344-14.17,14.17
			c0,0.456,0.026,0.906,0.068,1.351c-1.729,0.911-3.435,1.882-5.101,2.945c-15.599,9.957-26.386,25.391-30.375,43.461L37.686,431.47
			c-2.054,9.303-0.362,18.849,4.765,26.88c5.125,8.03,13.072,13.584,22.375,15.637c19.257,4.25,39.022,0.748,55.649-9.863
			c16.625-10.613,28.122-27.064,32.375-46.323l3.385-15.332c4.935,4.381,10.759,7.775,17.167,9.878
			c4.777,1.567,9.871,2.427,15.165,2.427c17.672,0,33.175-9.451,41.728-23.562c0.831-1.37,1.594-2.786,2.289-4.24h47.309
			c0.727,1.44,1.524,2.839,2.386,4.193c8.659,13.609,23.865,22.664,41.156,22.664c5.222,0,10.251-0.834,14.971-2.361
			c6.409-2.073,12.237-5.44,17.185-9.791l3.559,16.124c4.253,19.26,15.75,35.711,32.375,46.323
			c11.918,7.607,25.6,11.629,39.566,11.629c5.364,0,10.775-0.594,16.083-1.766c9.303-2.053,17.249-7.607,22.375-15.637
			C474.675,450.319,476.367,440.774,474.314,431.47z M387.778,278.079c7.565,0,13.697,6.133,13.697,13.697
			c0,7.565-6.132,13.697-13.697,13.697s-13.697-6.132-13.697-13.697S380.213,278.079,387.778,278.079z M146.42,320.858h-1.888v1.888
			c-0.001,7.826-6.345,14.17-14.17,14.17c-7.826,0-14.17-6.344-14.17-14.17v-1.888h-1.888c-7.826,0-14.17-6.344-14.17-14.17
			c0-7.826,6.344-14.17,14.17-14.17h1.888v-1.888c0-7.826,6.344-14.17,14.17-14.17s14.17,6.344,14.17,14.17v1.888h1.888
			c7.826,0,14.17,6.344,14.17,14.17C160.59,314.514,154.246,320.858,146.42,320.858z M188.566,393.97
			c-15.438,0-27.953-12.515-27.953-27.954c0-15.439,12.515-27.954,27.953-27.954c15.439,0,27.954,12.515,27.954,27.954
			C216.52,381.455,204.005,393.97,188.566,393.97z M256,351.761c-7.565,0-13.697-6.133-13.697-13.697
			c0-7.565,6.132-13.697,13.697-13.697s13.697,6.133,13.697,13.697C269.697,345.627,263.565,351.761,256,351.761z M211.364,306.418
			c-4.564,0-8.264-3.7-8.264-8.264v-40.152c0-4.564,3.7-8.264,8.264-8.264h89.273c4.564,0,8.264,3.7,8.264,8.264v40.152
			c0,4.564-3.7,8.264-8.264,8.264H211.364z M323.434,393.025c-15.439,0-27.954-12.515-27.954-27.954
			c0-15.439,12.515-27.954,27.954-27.954c15.438,0,27.953,12.515,27.953,27.954C351.387,380.51,338.872,393.025,323.434,393.025z
			 M352.355,313.503c0-7.565,6.132-13.697,13.697-13.697s13.697,6.132,13.697,13.697s-6.132,13.697-13.697,13.697
			S352.355,321.066,352.355,313.503z M387.779,348.926c-7.565,0-13.697-6.133-13.697-13.697c0-7.565,6.132-13.697,13.697-13.697
			s13.697,6.133,13.697,13.697C401.476,342.793,395.344,348.926,387.779,348.926z M409.506,327.199
			c-7.565,0-13.697-6.133-13.697-13.697c0-7.565,6.132-13.697,13.697-13.697s13.697,6.133,13.697,13.697
			C423.203,321.066,417.071,327.199,409.506,327.199z"/>
	</g>
</g>
<g>
</g>
<g>
</g>
<g>
</g>
<g>
</g>
<g>
</g>
<g>
</g>
<g>
</g>
<g>
</g>
<g>
</g>
<g>
</g>
<g>
</g>
<g>
</g>
<g>
</g>
<g>
</g>
<g>
</g>
</svg>
