<?xml version="1.0" encoding="utf-8"?>
<!-- Svg Vector Icons : http://www.onlinewebfonts.com/icon -->
<!DOCTYPE svg PUBLIC "-//W3C//DTD SVG 1.1//EN" "http://www.w3.org/Graphics/SVG/1.1/DTD/svg11.dtd">
<svg version="1.1" xmlns="http://www.w3.org/2000/svg" xmlns:xlink="http://www.w3.org/1999/xlink" x="0px" y="0px" fill="#ffffff" viewBox="0 0 1000 1000" enable-background="new 0 0 1000 1000" xml:space="preserve">
<metadata> Svg Vector Icons : http://www.onlinewebfonts.com/icon </metadata>
<g><path d="M934.4,989.9c-19.6,0-28-18.4-28.7-30C893.3,745.4,715.1,577.3,500,577.3c-215.1,0-393.3,168.1-405.7,382.7c-0.7,11.6-9.1,30-28.7,30c-6.9,0-12.6-2.3-16.9-6.9c-7.8-8.2-7.7-20.4-7.5-23.9c10.3-194.6,141.1-360.1,327.1-415.8c-92.7-47.9-151.9-144.7-151.9-249.8C216.4,137.3,343.6,10,500,10c156.4,0,283.6,127.3,283.6,283.6c0,104.8-59.2,201.9-151.9,250.8C817.7,599,948.6,764.2,958.9,959.2c0.2,3.5,0.2,15.7-7.5,23.9C947.1,987.7,941.3,989.9,934.4,989.9z M500,63.1c-127.1,0-230.5,103.4-230.5,230.5S372.9,524.2,500,524.2c127.1,0,230.5-103.4,230.5-230.5S627.1,63.1,500,63.1z"/></g>
</svg>